<?xml version="1.0" encoding="utf-8"?>
<!DOCTYPE svg PUBLIC "-//W3C//DTD SVG 20010904//EN" "http://www.w3.org/TR/2001/REC-SVG-20010904/DTD/svg10.dtd">
<svg version="1.0" xmlns="http://www.w3.org/2000/svg" width="720px" height="272px" viewBox="0 0 720 272" preserveAspectRatio="xMidYMid meet">
 <g fill="#008bd6">
  <path d="M596.1 262.9 c-10.4 -1.2 -21.7 -4.5 -27.6 -7.9 -9.1 -5.2 -15.6 -13.8 -16.8 -22.3 l-0.6 -3.8 14.6 0.3 14.7 0.3 0.8 3.1 c1.1 4.2 7.7 10 13 11.5 11.1 3.1 32.2 2.7 40.7 -0.7 5.7 -2.2 9.1 -6.6 9.1 -11.4 0 -7.4 -6.3 -9.9 -41.1 -16 -25.8 -4.6 -34.8 -7.4 -41.3 -13.1 -10.5 -9.2 -10.6 -25.8 -0.2 -36 16 -15.8 60.9 -19.4 87.1 -6.9 10.8 5.2 17.7 13.2 19.9 23.3 l0.6 2.7 -14.7 0 -14.8 -0.1 -2 -4.2 c-3.8 -8 -11.4 -11.1 -28 -11.1 -13.1 -0.1 -19.3 1.4 -24.1 5.9 -2.8 2.7 -3.4 4 -3.4 7.3 0 3.5 0.5 4.5 3.3 6.6 4.1 3.1 7 3.8 29.7 7.6 21.1 3.4 26 4.5 34.7 7.1 16.8 5 23.5 12.1 23.5 25.1 0 15.2 -12.9 26.8 -34.7 31.3 -9.6 2 -32.1 2.7 -42.4 1.4z"/>
  <path d="M91 217 l0 -44 -22.5 0 -22.5 0 0 -9 0 -9 60.5 0 60.5 0 0 9 0 9 -22.5 0 -22.5 0 0 44 0 44 -15.5 0 -15.5 0 0 -44z"/>
  <path d="M184 208 l0 -53 15.5 0 15.5 0 0 53 0 53 -15.5 0 -15.5 0 0 -53z"/>
  <path d="M244 208 l0 -53 22.4 0 22.4 0 6.2 19.3 c3.4 10.5 8.2 25.5 10.7 33.2 2.5 7.7 5.6 17.6 7 22 1.4 4.4 3 8.4 3.4 8.9 1.1 1.2 1.9 -1.1 9.1 -23.9 3.2 -10.4 8.8 -28.1 12.4 -39.2 l6.5 -20.3 21.9 0 21.9 0 0.6 3.3 c0.3 1.7 0.4 25.5 0.3 52.7 l-0.3 49.5 -14.2 0.3 -14.3 0.3 0 -44.1 c0 -24.2 -0.4 -44 -0.8 -44 -0.4 0 -1.3 1.7 -1.9 3.8 -1.2 4.2 -21 67.3 -24.3 77.5 l-2.2 6.8 -15 -0.3 -15.1 -0.3 -4.9 -16 c-2.7 -8.8 -6.3 -20.5 -7.9 -26 -1.7 -5.5 -5.1 -16.5 -7.6 -24.5 -2.4 -8 -4.9 -16 -5.5 -17.8 -0.5 -1.8 -1.4 -3 -1.9 -2.7 -0.5 0.4 -0.9 18.7 -0.9 44.1 l0 43.4 -14 0 -14 0 0 -53z"/>
  <path d="M419 208 l0 -53 55 0 55 0 0 9 0 9 -39.7 0.2 -39.8 0.3 0 11.5 0 11.5 36.3 0.3 36.3 0.2 -0.3 8.8 -0.3 8.7 -36.2 0.3 -36.3 0.2 0 14 0 14 41.5 0 41.5 0 0 9 0 9 -56.5 0 -56.5 0 0 -53z"/>
  <path d="M589.3 122.2 c-4.6 -0.2 -8.3 -0.4 -8.3 -0.5 0 -0.1 7.6 -25.4 16.8 -56.2 l16.8 -56 14.1 -0.3 14.1 -0.3 1 3.3 c0.6 1.8 8.1 26.9 16.7 55.8 8.7 28.8 15.9 53 16.2 53.7 0.4 1.1 -1.2 1.3 -8.3 1.1 l-8.9 -0.3 -15 -50.2 c-8.3 -27.6 -15.3 -50.4 -15.6 -50.7 -0.2 -0.3 -7.1 21.9 -15.3 49.2 -8.2 27.3 -15.1 50.2 -15.5 50.7 -0.3 0.6 -4.1 0.9 -8.8 0.7z"/>
  <path d="M238.3 119.8 c-0.6 -0.7 -7.5 -22.9 -15.3 -49.3 -7.9 -26.4 -14.6 -48.3 -14.9 -48.7 -0.5 -0.6 -14.5 44.8 -28.8 93.5 l-1.5 4.7 -8.5 0 -8.5 0 0.7 -2.7 c0.3 -1.6 7.7 -26.4 16.4 -55.3 l15.7 -52.5 14.1 -0.3 14.1 -0.3 1 3.3 c3.5 11.1 32.2 107.6 32.2 108.1 0 1.3 -15.7 0.8 -16.7 -0.5z"/>
  <path d="M264 65 l0 -56 11.5 0 11.5 0 0 46 0 46 28 0 28 0 0 10 0 10 -39.5 0 -39.5 0 0 -56z"/>
  <path d="M375.6 112.8 c-11.9 -39.3 -30.6 -102.3 -30.6 -103 0 -0.4 3.8 -0.8 8.5 -0.8 l8.4 0 2.1 7.3 c9.3 31.3 27.1 90.1 27.5 90.5 0.7 0.7 0.9 0 16 -50.3 l14.1 -47 8.8 -0.3 c6.9 -0.2 8.7 0 8.4 1 -0.3 0.7 -7.9 25.9 -16.9 56.1 l-16.4 54.7 -13.7 0 -13.7 0 -2.5 -8.2z"/>
  <path d="M447 65 l0 -56 11 0 11 0 0 56 0 56 -11 0 -11 0 0 -56z"/>
  <path d="M522 99.8 l0 -21.2 -19 -34.4 c-10.4 -18.9 -19 -34.5 -19 -34.8 0 -0.2 5.9 -0.3 13.1 -0.2 l13.2 0.3 11.1 23.4 c6.1 12.9 11.5 23.4 12.1 23.4 0.5 0 5.8 -10.6 11.6 -23.4 l10.6 -23.4 12.7 -0.3 c6.9 -0.1 12.6 -0.1 12.6 0.1 0 0.2 -8.3 16 -18.5 35.1 l-18.5 34.7 0 21 0 20.9 -11 0 -11 0 0 -21.2z"/>
  <path d="M52.8 119.3 l-7.8 -0.4 0 -54.9 0 -55 17 0 c16.8 0 17 0 17.5 2.3 0.3 1.2 4.6 20 9.5 41.7 4.9 21.7 9.2 40.6 9.5 41.9 0.4 1.4 1 2 1.5 1.5 0.7 -0.7 20 -84.5 20 -86.8 0 -0.3 7.7 -0.6 17 -0.6 l17 0 0 55.5 0 55.5 -10.5 0 -10.5 0 0 -46.4 c0 -25.6 -0.4 -46.7 -0.8 -47 -0.4 -0.2 -5.5 20.6 -11.3 46.5 l-10.4 46.9 -11.2 0 c-10.9 0 -11.3 -0.1 -11.8 -2.2 -1.5 -6.2 -19.5 -89.4 -19.5 -90 0 -0.5 -0.4 -0.8 -1 -0.8 -0.7 0 -1 16.2 -1 46.5 l0 46.5 -2.7 -0.2 c-1.6 -0.1 -6.3 -0.4 -10.5 -0.5z"/>
 </g>
</svg>